<?xml version="1.0" encoding="utf-8"?>
<!-- Generator: Adobe Illustrator 19.1.0, SVG Export Plug-In . SVG Version: 6.00 Build 0)  -->
<svg version="1.1" id="Layer_1" xmlns="http://www.w3.org/2000/svg" xmlns:xlink="http://www.w3.org/1999/xlink" x="0px" y="0px"
	 width="14px" height="14px" viewBox="-944.1 548.2 14 14" style="enable-background:new -944.1 548.2 14 14;" xml:space="preserve"
	>
<style type="text/css">
	.st0{fill:#007AFF;}
</style>
<path class="st0" d="M-937.1,561.2c-3.3,0-6-2.7-6-6s2.7-6,6-6s6,2.7,6,6S-933.8,561.2-937.1,561.2 M-937.1,548.2c-3.9,0-7,3.1-7,7
	s3.1,7,7,7s7-3.1,7-7S-933.2,548.2-937.1,548.2"/>
<g>
	<path class="st0" d="M-936.6,559.4c-0.1,0.1-0.4,0.2-0.5,0.2c-0.2,0-0.4-0.1-0.5-0.2c-0.1-0.1-0.2-0.3-0.2-0.5
		c0-0.2,0.1-0.3,0.2-0.4c0.1-0.1,0.4-0.2,0.5-0.2c0.2,0,0.4,0.1,0.5,0.2c0.1,0.1,0.2,0.3,0.2,0.4
		C-936.4,559-936.5,559.3-936.6,559.4z"/>
	<path class="st0" d="M-936.3,555.2c-0.2,0.2-0.4,0.4-0.4,0.7c-0.1,0.2-0.1,0.5-0.1,0.9s-0.1,0.5-0.5,0.5s-0.6-0.1-0.6-0.5
		c-0.1-0.5,0-1,0.1-1.4c0.2-0.4,0.6-0.8,0.9-1.2c0.4-0.3,0.6-0.8,0.7-1.2c0-0.3-0.1-0.5-0.4-0.8c-0.2-0.2-0.4-0.3-0.6-0.3
		c-0.2,0-0.5,0-0.7,0.2c-0.2,0.1-0.4,0.3-0.5,0.7c-0.1,0.2-0.2,0.4-0.4,0.4s-0.4,0-0.5-0.1c-0.1-0.1-0.2-0.2-0.2-0.4
		c0.1-0.5,0.4-1,0.7-1.3c0.4-0.3,0.8-0.4,1.3-0.5c0.5,0,0.9,0.1,1.3,0.3c0.5,0.3,0.7,0.8,0.9,1.3
		C-934.9,553.6-935.3,554.4-936.3,555.2z"/>
</g>
</svg>
